<?xml version="1.0" encoding="UTF-8" standalone="no"?>
<!-- Created with Inkscape (http://www.inkscape.org/) -->

<svg
   width="140mm"
   height="150mm"
   viewBox="0 0 140 150"
   version="1.1"
   id="svg1"
   xml:space="preserve"
   inkscape:version="1.3.2 (091e20e, 2023-11-25, custom)"
   sodipodi:docname="AIEETCODE_LOGO.svg"
   inkscape:export-filename="AIEETCODE_LOGO.png"
   inkscape:export-xdpi="96"
   inkscape:export-ydpi="96"
   xmlns:inkscape="http://www.inkscape.org/namespaces/inkscape"
   xmlns:sodipodi="http://sodipodi.sourceforge.net/DTD/sodipodi-0.dtd"
   xmlns="http://www.w3.org/2000/svg"
   xmlns:svg="http://www.w3.org/2000/svg"><sodipodi:namedview
     id="namedview1"
     pagecolor="#ffffff"
     bordercolor="#000000"
     borderopacity="0.25"
     inkscape:showpageshadow="2"
     inkscape:pageopacity="0.0"
     inkscape:pagecheckerboard="0"
     inkscape:deskcolor="#d1d1d1"
     inkscape:document-units="mm"
     inkscape:zoom="0.76167929"
     inkscape:cx="291.46125"
     inkscape:cy="351.19768"
     inkscape:window-width="1920"
     inkscape:window-height="1111"
     inkscape:window-x="-9"
     inkscape:window-y="-9"
     inkscape:window-maximized="1"
     inkscape:current-layer="layer1" /><defs
     id="defs1" /><g
     inkscape:label="Layer 1"
     inkscape:groupmode="layer"
     id="layer1"><path
       style="fill:#000000"
       d="m 77.470769,144.32591 c -1.34586,-0.49614 -3.01773,-2.06583 -3.8395,-3.60483 -0.59192,-1.10854 -0.60626,-1.3169 -0.60626,-8.80832 v -7.67292 l 0.82081,-1.4552 c 0.92266,-1.63578 2.54239,-3.01867 4.01452,-3.42752 4.9127,-1.36438 9.31988,2.03033 9.31988,7.17882 v 1.54036 h -2.24896 -2.24896 v -1.20376 c 0,-1.35252 -0.54608,-2.61382 -1.30826,-3.02173 -0.96484,-0.51636 -2.37175,-0.32575 -3.05757,0.41426 -0.87143,0.94029 -0.97883,1.99334 -0.87951,8.62306 l 0.086,5.73787 0.7771,0.81057 c 1.13497,1.18384 2.45272,1.13771 3.56111,-0.12468 0.68266,-0.77751 0.82116,-1.15682 0.82116,-2.24896 v -1.31371 h 2.24896 2.24896 l -0.001,1.52135 c -0.002,2.03659 -0.37692,3.26693 -1.40731,4.61786 -1.37928,1.80835 -2.99853,2.6554 -5.27493,2.75938 -1.27026,0.058 -2.28921,-0.0504 -3.02573,-0.3219 z m 16.72091,0.11326 c -2.07631,-0.77457 -4.08322,-2.95441 -4.64672,-5.04711 -0.17377,-0.64531 -0.24844,-3.70493 -0.19757,-8.09482 l 0.0818,-7.0574 0.78024,-1.40852 c 2.55368,-4.60997 8.77735,-5.07506 11.966181,-0.89423 0.47214,0.61902 0.9816,1.56897 1.13214,2.111 0.36009,1.29658 0.36009,14.43276 0,15.72934 -0.38493,1.38599 -1.77105,3.10077 -3.24121,4.0097 -1.019851,0.63052 -1.604051,0.78934 -3.165871,0.86068 -1.05338,0.0481 -2.27242,-0.0458 -2.70898,-0.20864 z m 3.58401,-4.53118 c 1.26322,-0.99544 1.31078,-1.28336 1.31078,-7.93495 0,-5.1055 -0.076,-6.45121 -0.39961,-7.07703 -1.11086,-2.14816 -4.30709,-1.58629 -4.75816,0.83645 -0.091,0.48875 -0.12859,3.60729 -0.0835,6.93009 l 0.0819,6.04145 0.86407,0.77157 c 0.92887,0.82942 2.23972,1.01935 2.98453,0.43242 z m -93.1313417,4.10946 c 0.0078,-0.25466 0.997549,-5.88037 2.199496,-12.50156 l 2.185359,-12.03855 2.8324367,-0.0751 c 2.120869,-0.0563 2.863191,0.0102 2.954854,0.26458 0.263244,0.73056 4.291493,24.42866 4.184148,24.61525 -0.06279,0.10914 -1.051611,0.19844 -2.197383,0.19844 -2.281923,0 -2.166064,0.0887 -2.504642,-1.91823 l -0.167384,-0.99223 H 11.792457 9.4536823 l -0.181816,1.45521 -0.181816,1.45521 h -2.22992 c -1.95273,0 -2.228163,-0.0576 -2.215783,-0.46302 z m 8.7171127,-6.83069 c 0,-0.37452 -0.832009,-6.08628 -1.205762,-8.2776 -0.0832,-0.48781 -0.20897,-0.82924 -0.279483,-0.75872 -0.20266,0.20266 -1.647072,9.03148 -1.513715,9.25243 0.06588,0.10914 0.76759,0.19843 1.559367,0.19843 1.13052,0 1.439593,-0.089 1.439593,-0.41454 z m 8.001055,-5.20785 0.06874,-12.50157 2.182812,-0.0768 2.182813,-0.0769 v 12.57841 12.57841 h -2.251549 -2.251549 z m 7.609362,-0.0661 v -12.57764 l 6.019271,0.0711 6.019271,0.0711 0.08099,1.57648 c 0.150141,2.92236 0.337475,2.78915 -3.922493,2.78915 H 33.46979 v 2.64583 2.64584 h 3.699126 c 4.259968,0 4.072634,-0.13321 3.922493,2.78915 l -0.08099,1.57647 -3.770313,0.0734 -3.770312,0.0734 v 3.16047 3.16047 l 3.770312,0.0734 3.770313,0.0734 v 2.11666 2.11667 l -6.019271,0.0711 -6.019271,0.0711 z m 15.08125,0 V 119.3451 h 6.096117 6.096117 l -0.07685,2.18282 -0.07685,2.18281 -3.770313,0.0734 -3.770312,0.0734 v 2.6313 2.63131 l 3.770312,0.0734 3.770313,0.0734 0.07673,2.17548 0.07673,2.17549 -3.780895,0.0735 -3.780894,0.0735 -0.07448,3.10153 -0.07448,3.10154 3.778646,0.0735 3.778646,0.0735 0.07685,2.18281 0.07685,2.18281 H 50.149247 44.05313 Z m 18.722385,2.32576 -0.0693,-10.26326 -2.38125,-0.13229 -2.38125,-0.13229 -0.07685,-2.18281 -0.07685,-2.18282 h 7.165153 7.165154 l -0.0768,2.18282 -0.0768,2.18281 -2.31201,0.0764 -2.31201,0.0764 -0.0692,10.24235 -0.0692,10.24235 -2.179704,0.0768 -2.179691,0.0768 z m 43.454708,-2.32576 V 119.3451 h 4.1862 c 4.67528,0 5.8952,0.26131 7.53669,1.61436 0.5377,0.44322 1.30494,1.36263 1.70498,2.04314 l 0.72734,1.23729 v 7.54063 7.54063 l -0.72574,1.23455 c -0.39916,0.67901 -1.21671,1.65481 -1.81679,2.16846 -1.72775,1.47889 -2.9219,1.75636 -7.55877,1.75636 h -4.05391 z m 8.21074,7.66844 c 1.45627,-0.75307 1.57884,-1.35961 1.57884,-7.81291 0,-5.02683 -0.0635,-5.96688 -0.44729,-6.61651 -0.58779,-0.99504 -1.53344,-1.35745 -3.28231,-1.2579 l -1.42977,0.0814 -0.0703,7.6697 c -0.0387,4.21833 -0.0126,7.81997 0.0578,8.00364 0.18134,0.47255 2.63797,0.42647 3.593,-0.0674 z m 8.84377,4.56854 c -0.0697,-0.1819 -0.0958,-5.8076 -0.0578,-12.50156 l 0.069,-12.17084 6.03006,-0.0711 6.03005,-0.0711 -0.0769,2.18781 -0.0769,2.18781 -3.63802,0.0736 -3.63802,0.0736 v 2.6309 2.6309 l 3.63802,0.0736 3.63802,0.0736 0.0768,2.18281 0.0769,2.18281 h -3.71487 -3.71487 v 3.16754 3.16753 l 3.63802,0.0736 3.63802,0.0736 0.0768,2.18281 0.0769,2.18281 h -5.97213 c -4.53369,0 -6.00267,-0.0797 -6.09893,-0.33073 z M 105.80679,103.11062 C 99.277829,97.641355 94.769779,91.241405 92.502729,84.223245 c -0.4116,-1.27418 -0.82206,-2.70364 -0.91215,-3.17659 l -0.1638,-0.85989 h 7.23332 c 7.485151,0 9.686261,-0.20723 10.555381,-0.99377 1.27728,-1.15593 1.3563,-1.6404 1.54254,-9.45727 0.1915,-8.03812 0.5374,-10.30579 1.93606,-12.69242 0.77814,-1.3278 2.7172,-3.15942 3.98455,-3.76378 0.51077,-0.24357 0.92867,-0.52855 0.92867,-0.63329 0,-0.10474 -0.54051,-0.5072 -1.20114,-0.89435 -1.91397,-1.12166 -3.01113,-2.23015 -3.84776,-3.8875 -1.32788,-2.63053 -1.59152,-4.43331 -1.8122,-12.3922 -0.17283,-6.232986 -0.27086,-7.417 -0.68383,-8.259321 -0.63439,-1.293949 -1.88089,-1.877605 -4.29517,-2.011157 l -1.91823,-0.106111 V 22.34639 19.597184 h 2.19337 c 5.30163,0 8.36283,1.979933 9.73281,6.294997 0.49312,1.553212 0.59197,2.749274 0.79175,9.580004 0.23983,8.20013 0.44444,9.68887 1.58527,11.53478 0.78406,1.26863 2.67158,2.44031 4.27356,2.65282 l 1.28418,0.17035 -0.0747,2.78954 -0.0747,2.78954 -1.32292,0.30279 c -2.58217,0.59101 -3.93303,1.75089 -4.75608,4.08365 -0.48802,1.3832 -0.93095,6.86598 -0.93182,11.53451 -0.001,6.9101 -0.886,10.20548 -3.25496,12.12402 -1.82716,1.47976 -2.77423,1.84241 -5.14953,1.97184 -2.66721,0.14533 -2.56956,-0.067 -2.3792,5.173 0.15021,4.13464 0.98093,8.45641 2.34392,12.194115 0.82354,2.25836 0.88258,2.52905 0.55161,2.52905 -0.11802,0 -1.40262,-0.99521 -2.85466,-2.21157 z M 43.023586,101.81646 C 43.73547,100.39841 92.234179,5.7862674 92.313239,5.6613274 c 0.0157,-0.02488 1.60569,-0.130962 3.53322,-0.235744 2.71581,-0.147633 3.50459,-0.116621 3.50459,0.137789 0,0.180565 -11.45976,22.2828006 -25.46614,49.1160726 l -25.466157,48.787785 -3.112663,0.001 -3.112663,10e-4 z M 30.162502,84.715805 c -2.714778,-1.30336 -4.283942,-3.44319 -4.90587,-6.69001 -0.148647,-0.77603 -0.380196,-4.74471 -0.514553,-8.81929 -0.257835,-7.81922 -0.498779,-9.46423 -1.627497,-11.11148 -0.881554,-1.28655 -2.981453,-2.45074 -4.499294,-2.49443 -0.891911,-0.0257 -1.020495,-0.39492 -1.020495,-2.93054 0,-2.44368 0.137519,-2.91042 0.857507,-2.91042 1.251029,0 2.775007,-0.71382 3.943456,-1.84709 1.891392,-1.83444 2.079617,-2.74247 2.359391,-11.382077 0.257972,-7.966374 0.501665,-10.044475 1.411725,-12.038542 0.885975,-1.941294 1.837737,-2.924127 3.737248,-3.859253 1.499466,-0.738185 2.027672,-0.849467 4.613872,-0.972048 l 2.920552,-0.138428 v 2.780799 2.780799 l -1.918229,0.124423 c -2.524697,0.16376 -3.535933,0.705445 -4.224997,2.263189 -0.482954,1.091797 -0.562308,2.013804 -0.744162,8.646319 -0.215694,7.866699 -0.410477,9.225079 -1.681743,11.728129 -0.831768,1.6377 -1.631669,2.47183 -3.574753,3.7277 l -1.596889,1.03212 1.569758,0.96891 c 0.863367,0.5329 1.975683,1.47012 2.471813,2.08271 2.217107,2.73754 2.537717,4.28429 2.818174,13.59598 0.30203,10.02798 0.502176,10.47188 4.888747,10.84268 l 1.992281,0.16841 v 2.60701 2.60701 l -2.844271,-2.1e-4 c -2.590076,-1.9e-4 -2.986147,-0.0683 -4.431771,-0.76237 z m 16.536459,-25.48654 c -5.748073,-2.47315 -10.538516,-4.63329 -10.645428,-4.80032 -0.329608,-0.51494 -0.229989,-3.26058 0.12824,-3.53447 0.181901,-0.13908 4.021667,-1.81141 8.532813,-3.71629 4.511145,-1.90488 9.189314,-3.88687 10.395929,-4.40442 l 2.193847,-0.94101 -0.07718,2.04332 -0.07718,2.04332 -8.06312,3.30918 c -4.434716,1.82005 -8.043585,3.41572 -8.019708,3.54593 0.02388,0.13021 3.592749,1.72074 7.930828,3.5345 4.33808,1.81377 7.982298,3.38564 8.098263,3.49306 0.115966,0.10742 0.175497,1.03422 0.132292,2.05956 l -0.07856,1.86426 z m 37.411118,4.18034 c -0.0726,-0.18934 -0.0962,-1.08245 -0.0523,-1.98469 l 0.0798,-1.64043 8.31048,-3.47731 c 5.76358,-2.41162 8.196181,-3.54787 7.937501,-3.70755 -0.20514,-0.12664 -3.944851,-1.69487 -8.310481,-3.48495 l -7.9375,-3.2547 -0.0777,-1.88663 c -0.0579,-1.40628 0.009,-1.88714 0.26459,-1.88862 0.18827,-10e-4 5.01552,1.98178 10.72721,4.40641 l 10.384901,4.4084 v 1.80199 c 0,1.49921 -0.0844,1.84717 -0.50241,2.07087 -0.27632,0.14788 -5.045031,2.22921 -10.597141,4.62517 -7.20033,3.10723 -10.13261,4.25758 -10.22684,4.01204 z"
       id="path1" /></g></svg>
